<?xml version="1.0" encoding="utf-8"?>
<!-- Generator: Adobe Illustrator 19.2.1, SVG Export Plug-In . SVG Version: 6.00 Build 0)  -->
<svg version="1.1" id="Layer_1" xmlns="http://www.w3.org/2000/svg" xmlns:xlink="http://www.w3.org/1999/xlink" x="0px" y="0px"
	 viewBox="0 0 405.8 182.5" style="enable-background:new 0 0 405.8 182.5;" xml:space="preserve">
<style type="text/css">
	.st0{fill:#191919;}
	.st1{fill:#FFFFFF;}
	.st2{clip-path:url(#SVGID_2_);}
	.st3{clip-path:url(#SVGID_4_);fill:#191919;}
</style>
<g>
	<g>
		<g>
			<path class="st0" d="M244.3,18.4h-13.4v36.4h-9.5V18.4h-13.2v-7.7h22.7h13.4V18.4z"/>
			<path class="st0" d="M274.6,24.5c1.9,2,2.9,5.3,2.9,9.8v20.5h-9.1V34.2c0-2-0.4-3.4-1.3-4.2c-0.8-0.8-2.1-1.2-3.8-1.2
				c-2.4,0-4.2,0.9-5.3,2.7v23.3h-9.1V10.7h9.1v14.8c1.1-1.3,2.4-2.3,3.8-3.1c1.5-0.7,3.1-1.1,4.8-1.1
				C270,21.4,272.7,22.4,274.6,24.5z"/>
			<path class="st0" d="M311.6,41.3h-20.7c0.3,2,1.2,3.7,2.5,4.9c1.4,1.2,3.1,1.8,5.2,1.8c1.6,0,3-0.3,4.4-0.9
				c1.3-0.6,2.5-1.5,3.4-2.7l4.4,5.1c-1.1,1.7-2.8,3-5,4.2c-2.2,1.1-4.8,1.7-7.8,1.7c-3.3,0-6.3-0.7-8.7-2.1
				c-2.5-1.4-4.4-3.3-5.7-5.8c-1.3-2.4-2-5.1-2-8v-1.1c0-3.3,0.6-6.2,1.8-8.7c1.2-2.6,3-4.6,5.3-6c2.3-1.4,5.1-2.2,8.2-2.2
				c3.1,0,5.7,0.7,7.9,2c2.2,1.3,3.8,3.2,5,5.6c1.1,2.4,1.7,5.3,1.7,8.5V41.3z M302.6,34.5c0-1.8-0.5-3.2-1.5-4.2
				c-0.9-1-2.3-1.5-4.2-1.5c-1.7,0-3.1,0.6-4.1,1.7c-1,1.2-1.6,2.7-1.9,4.8h11.7V34.5z"/>
		</g>
		<g>
			<path class="st0" d="M244.3,76.7h-13.4v36.4h-9.5V76.7h-13.2V69h22.7h13.4V76.7z"/>
			<path class="st0" d="M265.8,79.8c0.5,0.1,0.9,0.2,1.3,0.3l-0.1,8.8c-1.2-0.2-2.3-0.2-3.2-0.2c-3.3,0-5.4,1.1-6.4,3.2v21.2h-9.1
				V80.3h8.6l0.3,4c0.8-1.5,1.8-2.6,3.1-3.4c1.2-0.8,2.6-1.2,4.2-1.2C264.8,79.7,265.3,79.8,265.8,79.8z"/>
			<path class="st0" d="M300.3,80.3v32.8h-8.6l-0.2-3.4c-1,1.3-2.3,2.3-3.8,3c-1.5,0.7-3.2,1-5.1,1c-3.4,0-6.1-1-8-3
				c-1.9-2-2.9-5-2.9-9.2V80.3h9.1v21.3c0,1.6,0.4,2.8,1.2,3.6c0.8,0.8,1.9,1.2,3.3,1.2c2.8,0,4.8-1,5.8-2.9v-23H300.3z"/>
			<path class="st0" d="M305.7,90c0-1.9,0.5-3.6,1.6-5.1c1.1-1.6,2.6-2.8,4.6-3.7c2-0.9,4.3-1.4,7-1.4c2.8,0,5.3,0.4,7.4,1.3
				c2.1,0.9,3.7,2.2,4.8,3.8c1.1,1.6,1.7,3.4,1.7,5.5h-9.1c0-1.3-0.4-2.3-1.2-3.1c-0.8-0.7-2-1.1-3.6-1.1c-1.3,0-2.4,0.3-3.2,0.9
				c-0.8,0.6-1.2,1.4-1.2,2.4c0,0.9,0.4,1.7,1.3,2.3c0.9,0.6,2.4,1.1,4.6,1.5c2.6,0.5,4.8,1.1,6.6,1.9c1.8,0.8,3.2,1.9,4.3,3.2
				c1.1,1.4,1.6,3.1,1.6,5.2c0,1.9-0.6,3.6-1.7,5.2c-1.1,1.5-2.8,2.7-4.9,3.6c-2.1,0.9-4.6,1.3-7.3,1.3c-2.9,0-5.5-0.5-7.6-1.6
				c-2.1-1.1-3.8-2.5-4.9-4.2c-1.1-1.7-1.7-3.5-1.7-5.3h8.6c0.1,1.6,0.6,2.7,1.7,3.5c1.1,0.8,2.4,1.1,4.1,1.1c1.6,0,2.8-0.3,3.6-0.9
				c0.8-0.6,1.3-1.4,1.3-2.4c0-0.6-0.2-1.2-0.6-1.6c-0.4-0.4-1-0.8-2-1.2c-1-0.4-2.3-0.8-4.1-1.1C309.6,98.3,305.7,95,305.7,90z"/>
			<path class="st0" d="M355.7,106v6.9c-1.6,0.6-3.4,0.8-5.4,0.8c-6.4,0-9.6-3.3-9.6-9.8V87H336v-6.7h4.6v-8.1h9.1v8.1h5.5V87h-5.5
				v15.8c0,1.3,0.3,2.2,0.8,2.6c0.5,0.5,1.4,0.7,2.6,0.7C354.1,106.2,355,106.1,355.7,106z"/>
		</g>
		<g>
			<path class="st0" d="M236.9,129.3c2.5,1.3,4.5,3,5.8,5.2c1.3,2.2,2,4.8,2,7.6c0,2.8-0.7,5.3-2,7.4c-1.3,2.1-3.3,3.8-5.8,4.9
				c-2.5,1.2-5.5,1.7-8.9,1.7h-7.8v15.3h-9.5v-44.1H228C231.4,127.4,234.4,128,236.9,129.3z M233.4,146.7c1.2-1.1,1.8-2.7,1.8-4.6
				c0-1.3-0.3-2.5-0.8-3.5c-0.5-1.1-1.3-1.9-2.4-2.6c-1.1-0.6-2.4-1-4-1h-7.8v13.4h7.8C230.4,148.4,232.2,147.9,233.4,146.7z"/>
			<path class="st0" d="M266.3,138.2c0.5,0.1,0.9,0.2,1.3,0.3l-0.1,8.8c-1.2-0.2-2.3-0.2-3.2-0.2c-3.3,0-5.4,1.1-6.4,3.2v21.2h-9.1
				v-32.8h8.6l0.3,4c0.8-1.5,1.8-2.6,3.1-3.4c1.2-0.8,2.6-1.2,4.2-1.2C265.3,138.1,265.8,138.1,266.3,138.2z"/>
			<path class="st0" d="M271.6,146.2c1.2-2.5,3-4.5,5.3-5.9c2.3-1.4,5.1-2.1,8.4-2.1c3.3,0,6.1,0.7,8.4,2.1c2.3,1.4,4.1,3.4,5.4,5.9
				c1.2,2.5,1.8,5.4,1.8,8.6v0.6c0,3.2-0.6,6.1-1.8,8.6c-1.2,2.5-3,4.5-5.3,5.9c-2.3,1.4-5.1,2.1-8.4,2.1c-3.3,0-6.1-0.7-8.4-2.1
				c-2.4-1.4-4.1-3.4-5.4-5.9c-1.2-2.5-1.8-5.4-1.8-8.6v-0.6C269.7,151.6,270.3,148.7,271.6,146.2z M280.4,162.2
				c1,1.7,2.7,2.5,4.9,2.5c2.2,0,3.8-0.8,4.9-2.5c1-1.7,1.5-3.9,1.5-6.7v-0.6c0-2.8-0.5-5-1.5-6.8c-1-1.7-2.7-2.6-4.9-2.6
				c-2.2,0-3.8,0.9-4.9,2.6c-1,1.7-1.5,4-1.5,6.7v0.6C278.9,158.2,279.4,160.5,280.4,162.2z"/>
			<path class="st0" d="M315.2,170.8c0,3.8-1,6.6-3,8.7c-2,2-4.9,3-8.5,3c-1.6,0-3.1-0.2-4.5-0.5v-7.2c1,0.2,1.9,0.3,2.8,0.3
				c2.7,0,4.1-1.4,4.1-4.2v-32.1h9.2V170.8z M314.2,127.3c0.9,0.9,1.4,2,1.4,3.4c0,1.4-0.5,2.5-1.4,3.4c-0.9,0.9-2.2,1.3-3.7,1.3
				c-1.5,0-2.8-0.4-3.7-1.3c-0.9-0.9-1.4-2-1.4-3.4c0-1.4,0.5-2.5,1.4-3.4c0.9-0.9,2.2-1.3,3.7-1.3C312,126,313.2,126.4,314.2,127.3
				z"/>
			<path class="st0" d="M350.1,158h-20.7c0.3,2,1.2,3.7,2.5,4.9c1.4,1.2,3.1,1.8,5.2,1.8c1.6,0,3-0.3,4.4-0.9
				c1.3-0.6,2.5-1.5,3.4-2.7l4.4,5.1c-1.2,1.7-2.8,3-5,4.2c-2.2,1.1-4.8,1.7-7.8,1.7c-3.4,0-6.3-0.7-8.7-2.1
				c-2.5-1.4-4.4-3.3-5.7-5.8c-1.3-2.4-2-5.1-2-8V155c0-3.3,0.6-6.2,1.8-8.7c1.2-2.6,3-4.6,5.3-6c2.3-1.4,5.1-2.2,8.2-2.2
				c3.1,0,5.7,0.7,7.9,2c2.2,1.3,3.8,3.2,5,5.6c1.1,2.4,1.7,5.2,1.7,8.5V158z M341.1,151.2c0-1.8-0.5-3.2-1.5-4.2
				c-0.9-1-2.3-1.5-4.2-1.5c-1.7,0-3.1,0.6-4.1,1.7c-1,1.1-1.6,2.7-1.9,4.8h11.7V151.2z"/>
			<path class="st0" d="M382.8,160c0,2.3-0.6,4.4-1.8,6.2c-1.2,1.8-2.8,3.3-4.9,4.3c-2.1,1-4.4,1.5-6.9,1.5c-3.3,0-6.1-0.7-8.4-2.1
				c-2.3-1.4-4-3.4-5.1-5.9c-1.1-2.5-1.7-5.3-1.7-8.5v-0.8c0-3.2,0.6-6,1.7-8.5c1.1-2.5,2.8-4.5,5.1-5.9c2.3-1.4,5-2.1,8.3-2.1
				c2.7,0,5.1,0.5,7.1,1.6c2.1,1,3.7,2.5,4.8,4.5c1.1,1.9,1.7,4.2,1.7,6.9h-8.6c0-1.6-0.5-2.9-1.4-4c-0.9-1.1-2.2-1.6-3.9-1.6
				c-2.2,0-3.7,0.8-4.6,2.5c-0.8,1.7-1.2,3.9-1.2,6.7v0.8c0,2.9,0.4,5.1,1.2,6.8c0.8,1.6,2.4,2.5,4.6,2.5c1.6,0,2.8-0.4,3.8-1.3
				c1-0.8,1.4-2,1.5-3.5H382.8z"/>
			<path class="st0" d="M405.8,164.3v6.9c-1.6,0.6-3.4,0.8-5.4,0.8c-6.4,0-9.6-3.3-9.6-9.8v-16.9h-4.6v-6.7h4.6v-8.1h9.1v8.1h5.5
				v6.7h-5.5v15.8c0,1.3,0.3,2.2,0.8,2.6c0.5,0.5,1.4,0.7,2.6,0.7C404.2,164.5,405.1,164.5,405.8,164.3z"/>
		</g>
	</g>
	<g>
		<path class="st1" d="M171.4,153.2c0,10.1-8.2,18.2-18.2,18.2h-124c-10.1,0-18.2-8.2-18.2-18.2v-124c0-10.1,8.2-18.2,18.2-18.2h124
			c10.1,0,18.2,8.2,18.2,18.2V153.2z"/>
		<path class="st0" d="M153.2,0h-124C13.1,0,0,13.1,0,29.2v124c0,16.1,13.1,29.2,29.2,29.2h124c16.1,0,29.2-13.1,29.2-29.2v-124
			C182.4,13.1,169.3,0,153.2,0z M171.4,153.2c0,10.1-8.2,18.2-18.2,18.2h-124c-10.1,0-18.2-8.2-18.2-18.2v-124
			c0-10.1,8.2-18.2,18.2-18.2h124c10.1,0,18.2,8.2,18.2,18.2V153.2z"/>
		<g>
			<defs>
				<path id="SVGID_1_" d="M109.2,140.4h-36c-0.7,0-1.3-0.6-1.3-1.3V77.9c0-0.9-0.7-1.6-1.6-1.6h-32c-0.7,0-1.3-0.6-1.3-1.3V43.3
					c0-0.7,0.6-1.3,1.3-1.3H144c0.7,0,1.3,0.6,1.3,1.3v31.7c0,0.7-0.6,1.3-1.3,1.3h-32.2c-0.7,0-1.3,0.6-1.3,1.3v61.5
					C110.5,139.8,110,140.4,109.2,140.4z"/>
			</defs>
			<use xlink:href="#SVGID_1_"  style="overflow:visible;fill-rule:evenodd;clip-rule:evenodd;fill:#191919;"/>
			<clipPath id="SVGID_2_">
				<use xlink:href="#SVGID_1_"  style="overflow:visible;"/>
			</clipPath>
			<g class="st2">
				<defs>
					<rect id="SVGID_3_" x="-779.1" y="-591" width="1614.2" height="1313.4"/>
				</defs>
				<use xlink:href="#SVGID_3_"  style="overflow:visible;fill:#191919;"/>
				<clipPath id="SVGID_4_">
					<use xlink:href="#SVGID_3_"  style="overflow:visible;"/>
				</clipPath>
				<rect x="35.4" y="40.3" class="st3" width="111.6" height="101.8"/>
			</g>
		</g>
	</g>
</g>
</svg>
